<svg xmlns="http://www.w3.org/2000/svg" xmlns:xlink="http://www.w3.org/1999/xlink" width="2400" zoomAndPan="magnify" viewBox="0 0 1800 1799.999925" height="2400" preserveAspectRatio="xMidYMid meet" version="1.0"><defs><g/><clipPath id="95a140d137"><rect x="0" width="557" y="0" height="907"/></clipPath><clipPath id="0fb648f8fe"><rect x="0" width="585" y="0" height="907"/></clipPath><clipPath id="7e582ad3f8"><rect x="0" width="382" y="0" height="511"/></clipPath></defs><g transform="matrix(1, 0, 0, 1, 97, 444)"><g clip-path="url(#95a140d137)"><g fill="#081e58" fill-opacity="1"><g transform="translate(2.838147, 659.150652)"><g><path d="M 246.921875 24.125 C 216.460938 24.125 189.082031 19.078125 164.78125 8.984375 C 140.488281 -1.109375 119.097656 -15.476562 100.609375 -34.125 C 82.128906 -52.78125 66.816406 -74.6875 54.671875 -99.84375 C 42.523438 -125 33.285156 -152.632812 26.953125 -182.75 C 20.617188 -212.863281 17.453125 -244.519531 17.453125 -277.71875 C 17.453125 -328.707031 22.84375 -376.359375 33.625 -420.671875 C 44.40625 -464.992188 60.742188 -503.925781 82.640625 -537.46875 C 104.546875 -571.007812 131.835938 -597.191406 164.515625 -616.015625 C 197.203125 -634.835938 235.453125 -644.25 279.265625 -644.25 C 318.273438 -644.25 352.664062 -637.0625 382.4375 -622.6875 C 412.21875 -608.3125 437.285156 -587.945312 457.640625 -561.59375 C 478.003906 -535.25 493.316406 -504.019531 503.578125 -467.90625 C 513.847656 -431.800781 518.984375 -392.019531 518.984375 -348.5625 C 518.984375 -310.914062 516.070312 -274.039062 510.25 -237.9375 C 504.4375 -201.832031 494.941406 -167.953125 481.765625 -136.296875 C 468.597656 -104.640625 451.488281 -76.742188 430.4375 -52.609375 C 409.394531 -28.484375 383.726562 -9.664062 353.4375 3.84375 C 323.144531 17.363281 287.640625 24.125 246.921875 24.125 Z M 260.265625 -188.90625 C 272.242188 -188.90625 283.191406 -191.726562 293.109375 -197.375 C 303.035156 -203.019531 311.675781 -210.804688 319.03125 -220.734375 C 326.394531 -230.660156 332.644531 -241.867188 337.78125 -254.359375 C 342.914062 -266.847656 346.765625 -279.9375 349.328125 -293.625 C 351.898438 -307.320312 353.1875 -320.5 353.1875 -333.15625 C 353.1875 -347.53125 351.816406 -361.476562 349.078125 -375 C 346.335938 -388.519531 342.226562 -400.664062 336.75 -411.4375 C 331.28125 -422.21875 324.09375 -430.859375 315.1875 -437.359375 C 306.289062 -443.867188 295.851562 -447.125 283.875 -447.125 C 268.820312 -447.125 255.5625 -443.101562 244.09375 -435.0625 C 232.625 -427.019531 223.039062 -416.320312 215.34375 -402.96875 C 207.644531 -389.625 201.910156 -374.648438 198.140625 -358.046875 C 194.378906 -341.453125 192.5 -324.429688 192.5 -306.984375 C 192.5 -295.003906 193.441406 -283.363281 195.328125 -272.0625 C 197.210938 -260.769531 200.035156 -250.078125 203.796875 -239.984375 C 207.554688 -229.890625 212.175781 -220.992188 217.65625 -213.296875 C 223.132812 -205.597656 229.378906 -199.609375 236.390625 -195.328125 C 243.410156 -191.046875 251.367188 -188.90625 260.265625 -188.90625 Z M 260.265625 -188.90625 "/></g></g></g></g></g><g transform="matrix(1, 0, 0, 1, 1133, 444)"><g clip-path="url(#0fb648f8fe)"><g fill="#081e58" fill-opacity="1"><g transform="translate(3.484398, 659.150652)"><g><path d="M 204.828125 21.5625 C 180.523438 21.5625 161.441406 18.476562 147.578125 12.3125 C 133.722656 6.15625 124.054688 -2.3125 118.578125 -13.09375 C 113.109375 -23.875 110.375 -36.28125 110.375 -50.3125 C 110.375 -70.5 116.019531 -86.410156 127.3125 -98.046875 C 138.601562 -109.679688 156.054688 -118.582031 179.671875 -124.75 C 190.273438 -128.164062 202.335938 -132.695312 215.859375 -138.34375 C 229.378906 -143.988281 242.984375 -150.40625 256.671875 -157.59375 C 270.359375 -164.78125 283.019531 -172.394531 294.65625 -180.4375 C 306.289062 -188.476562 315.703125 -196.863281 322.890625 -205.59375 C 330.078125 -214.320312 333.671875 -222.960938 333.671875 -231.515625 C 333.671875 -236.648438 332.816406 -240.585938 331.109375 -243.328125 C 329.398438 -246.066406 326.660156 -247.4375 322.890625 -247.4375 C 318.441406 -247.4375 311.425781 -245.210938 301.84375 -240.765625 C 294.65625 -236.992188 283.789062 -233.054688 269.25 -228.953125 C 254.707031 -224.847656 237.507812 -222.796875 217.65625 -222.796875 C 180.695312 -222.796875 148.015625 -229.976562 119.609375 -244.34375 C 91.203125 -258.71875 68.867188 -279.851562 52.609375 -307.75 C 36.359375 -335.644531 28.234375 -369.78125 28.234375 -410.15625 C 28.234375 -443.695312 35.421875 -473.128906 49.796875 -498.453125 C 64.171875 -523.773438 83.675781 -544.820312 108.3125 -561.59375 C 132.957031 -578.363281 160.847656 -591.113281 191.984375 -599.84375 C 223.128906 -608.570312 255.816406 -612.9375 290.046875 -612.9375 C 342.054688 -612.9375 387.828125 -604.378906 427.359375 -587.265625 C 466.890625 -570.148438 497.773438 -544.222656 520.015625 -509.484375 C 542.265625 -474.753906 553.390625 -430.695312 553.390625 -377.3125 C 553.390625 -327 545.003906 -279.679688 528.234375 -235.359375 C 511.460938 -191.046875 487.503906 -151.003906 456.359375 -115.234375 C 425.210938 -79.472656 387.910156 -48.421875 344.453125 -22.078125 C 322.890625 -8.722656 300.300781 1.882812 276.6875 9.75 C 253.070312 17.625 229.117188 21.5625 204.828125 21.5625 Z M 284.90625 -348.5625 C 296.195312 -348.5625 306.972656 -350.53125 317.234375 -354.46875 C 327.503906 -358.40625 336.578125 -363.878906 344.453125 -370.890625 C 352.328125 -377.910156 358.488281 -386.296875 362.9375 -396.046875 C 367.382812 -405.796875 369.609375 -416.660156 369.609375 -428.640625 C 369.609375 -443.015625 365.925781 -455.160156 358.5625 -465.078125 C 351.207031 -475.003906 341.457031 -482.617188 329.3125 -487.921875 C 317.164062 -493.234375 303.734375 -495.890625 289.015625 -495.890625 C 272.585938 -495.890625 258.039062 -492.804688 245.375 -486.640625 C 232.71875 -480.484375 222.707031 -471.671875 215.34375 -460.203125 C 207.988281 -448.742188 204.3125 -434.972656 204.3125 -418.890625 C 204.3125 -404.859375 208.160156 -392.535156 215.859375 -381.921875 C 223.554688 -371.316406 233.566406 -363.101562 245.890625 -357.28125 C 258.210938 -351.46875 271.21875 -348.5625 284.90625 -348.5625 Z M 284.90625 -348.5625 "/></g></g></g></g></g><g transform="matrix(1, 0, 0, 1, 708, 643)"><g clip-path="url(#7e582ad3f8)"><g fill="#081e58" fill-opacity="1"><g transform="translate(2.771728, 371.221036)"><g><path d="M 159.328125 -125.546875 C 138.160156 -125.546875 118.097656 -126.171875 99.140625 -127.421875 C 80.191406 -128.671875 63.453125 -131.078125 48.921875 -134.640625 C 34.390625 -138.203125 22.988281 -143.109375 14.71875 -149.359375 C 6.445312 -155.617188 2.3125 -163.75 2.3125 -173.75 C 2.3125 -186.445312 5.914062 -196.5 13.125 -203.90625 C 20.34375 -211.320312 31.265625 -216.859375 45.890625 -220.515625 C 60.515625 -224.171875 78.796875 -226.570312 100.734375 -227.71875 C 122.671875 -228.875 148.453125 -229.453125 178.078125 -229.453125 C 206.753906 -229.453125 232.734375 -229.066406 256.015625 -228.296875 C 279.296875 -227.523438 299.253906 -225.457031 315.890625 -222.09375 C 332.535156 -218.726562 345.285156 -213.289062 354.140625 -205.78125 C 362.992188 -198.28125 367.421875 -187.796875 367.421875 -174.328125 C 367.421875 -162.785156 362.460938 -153.691406 352.546875 -147.046875 C 342.640625 -140.410156 328.546875 -135.550781 310.265625 -132.46875 C 291.992188 -129.394531 270.109375 -127.472656 244.609375 -126.703125 C 219.109375 -125.929688 190.679688 -125.546875 159.328125 -125.546875 Z M 159.328125 -125.546875 "/></g></g></g></g></g></svg>